PathFileType	4	(X/Y/Z)	marker.trc
DataRate	CameraRate	NumFrames	NumMarkers	Units	OrigDataRate	OrigDataStartFrame	OrigNumFrames
128	128	17	6	m	128	1926	2567
Frame#	Time	US29-1	US29-2	US29-3	US30-1	US30-2	US30-3	
		X1	Y1	Z1	X2	Y2	Z2	X3	Y3	Z3	X4	Y4	Z4	X5	Y5	Z5	X6	Y6	Z6	

1925	15.03125	0.113902054727077	0.275756686925888	0.120219983160496	0.137864857912064	0.298296838998795	0.0988456234335899	0.108266457915306	0.297822624444962	0.123408704996109	0.0629342496395111	0.29153698682785	0.0605389401316643	0.0668414980173111	0.28030651807785	0.0834894478321075	0.0570715107023716	0.300974786281586	0.0835803300142288	
1926	15.039062	0.105505056679249	0.273126155138016	0.119579806923866	0.12988668680191	0.295236140489578	0.0981970205903053	0.100286737084389	0.295323073863983	0.122725106775761	0.0549715794622898	0.290022760629654	0.0598388314247131	0.0587023533880711	0.278590202331543	0.0827401801943779	0.0492237359285355	0.299520403146744	0.082843191921711	
1927	15.046875	0.0970996618270874	0.270707637071609	0.119073212146759	0.121822230517864	0.292301386594772	0.0974543839693069	0.0922420397400856	0.292951673269272	0.122052974998951	0.0468298979103565	0.288627356290817	0.0591604188084602	0.0502785108983517	0.277043610811234	0.0820456445217133	0.0412501133978367	0.298260629177094	0.0821499228477478	
1928	15.054687	0.0885355472564697	0.268456369638443	0.118362136185169	0.113666720688343	0.289557963609695	0.0967405438423157	0.0841338932514191	0.290780544281006	0.121357768774033	0.0381042063236237	0.287439674139023	0.0584957078099251	0.0412729829549789	0.275933146476746	0.0813810303807259	0.033188559114933	0.297189772129059	0.0814397558569908	
1929	15.0625	0.0799401700496674	0.266370207071304	0.117613069713116	0.105438098311424	0.286973059177399	0.0959545820951462	0.0759074538946152	0.288813233375549	0.120652467012405	0.0302005521953106	0.286476522684097	0.0577739998698235	0.033232681453228	0.274681746959686	0.0806453600525856	0.0251712147146463	0.296291768550873	0.0807659924030304	
1930	15.070312	0.071250818669796	0.264542043209076	0.116777963936329	0.0972441658377647	0.284629017114639	0.095165528357029	0.0677363649010658	0.287009209394455	0.119893006980419	0.0214487109333277	0.285674601793289	0.057131540030241	0.0242115743458271	0.274019420146942	0.0800398737192154	0.017043974250555	0.295595973730087	0.0801854729652405	
1931	15.078125	0.0627162978053093	0.262873202562332	0.116048350930214	0.0889034122228622	0.282475203275681	0.0943051651120186	0.0595812276005745	0.285453915596008	0.119200423359871	0.0135158319026232	0.285101056098938	0.0564721673727036	0.0161624066531658	0.273203700780869	0.0793049335479736	0.00893058069050312	0.295093536376953	0.0795391052961349	
1932	15.085937	0.0541731119155884	0.261465400457382	0.115280739963055	0.0806785225868225	0.280593991279602	0.0934840440750122	0.0514851473271847	0.28409680724144	0.118469849228859	0.00522108748555183	0.284830719232559	0.0558502860367298	0.0077121565118432	0.272801697254181	0.0786765292286873	0.000878876831848174	0.294857382774353	0.0789374634623528	
1933	15.09375	0.045725341886282	0.260285198688507	0.114501744508743	0.0725244805216789	0.278893709182739	0.0927412137389183	0.0434547960758209	0.282940357923508	0.117675043642521	-0.0028888990636915	0.284795165061951	0.0553292967379093	-0.000817219959571958	0.272701293230057	0.0781996175646782	-0.00702667841687799	0.294831663370132	0.0783805921673775	
1934	15.101562	0.0374304801225662	0.259295433759689	0.113760262727737	0.0644327327609062	0.277444005012512	0.0918338969349861	0.0355399809777737	0.282014310359955	0.11698193103075	-0.0109119601547718	0.28485494852066	0.0547566376626492	-0.00908495765179396	0.272696137428284	0.0776210427284241	-0.0147543894127011	0.2949398458004	0.0777301117777824	
1935	15.109375	0.0292177982628345	0.258540958166122	0.113052852451801	0.0565826408565044	0.276209801435471	0.0912122651934624	0.0278118625283241	0.281243890523911	0.116273805499077	-0.0187247544527054	0.285052210092545	0.054035160690546	-0.0168021768331528	0.272835314273834	0.0767976492643356	-0.0223371423780918	0.295277833938599	0.0771355405449867	
1936	15.117187	0.021175317466259	0.258029848337173	0.112381719052792	0.0487965457141399	0.27522599697113	0.0905087068676949	0.0201501473784447	0.280749052762985	0.115656234323978	-0.0262032281607389	0.285673975944519	0.0534585639834404	-0.0249231867492199	0.273354023694992	0.0763243585824966	-0.0297165438532829	0.295842587947845	0.076512910425663	
1937	15.125	0.0132817458361387	0.257728844881058	0.111800067126751	0.0411948598921299	0.274430990219116	0.0898723229765892	0.0126572195440531	0.280480474233627	0.11511342227459	-0.0335984379053116	0.286335378885269	0.0529447793960571	-0.0324717462062836	0.273929178714752	0.0758759900927544	-0.0369373261928558	0.296491354703903	0.076152428984642	
1938	15.132812	0.00544630223885179	0.257653146982193	0.111214034259319	0.0336614139378071	0.273856371641159	0.0893204286694527	0.00521063897758722	0.280405193567276	0.114542774856091	-0.0408897027373314	0.287213116884232	0.0523821078240871	-0.0400328636169434	0.27474245429039	0.0753285735845566	-0.0439749360084534	0.297440826892853	0.0756013840436935	
1939	15.140625	-0.00231371284462512	0.257767468690872	0.110612332820892	0.0262279231101274	0.27350977063179	0.088852159678936	-0.00215841690078378	0.280531287193298	0.114007979631424	-0.0480759553611279	0.288298159837723	0.0518095754086971	-0.0474653355777264	0.275793939828873	0.0747799798846245	-0.050955768674612	0.298573613166809	0.0750517174601555	
1940	15.148437	-0.0100277420133352	0.25812366604805	0.110053971409798	0.0188179835677147	0.273366451263428	0.0883156731724739	-0.00949651189148426	0.280867755413055	0.113468982279301	-0.055230475962162	0.28955540060997	0.0512902848422527	-0.054816409945488	0.277013748884201	0.0742419436573982	-0.0579587258398533	0.299864917993546	0.0745720341801643	
1941	15.15625	-0.0176815539598465	0.258704483509064	0.109613455832005	0.0113481236621737	0.273475378751755	0.0877958089113235	-0.0167908053845167	0.281433910131454	0.112988665699959	-0.0624017491936684	0.29100176692009	0.0507930777966976	-0.0621615760028362	0.278444081544876	0.0737419947981834	-0.0648862645030022	0.301401078701019	0.0740594863891602	
